<svg xmlns="http://www.w3.org/2000/svg" height="120" viewBox="0 -960 960 960" width="120"><path d="M687.334-80q-79.957 0-136.312-56.355-56.355-56.355-56.355-136.311 0-79.957 56.355-136.312 56.355-56.355 136.312-56.355 79.956 0 136.311 56.355Q880-352.623 880-272.666q0 79.956-56.355 136.311Q767.29-80 687.334-80Zm61.162-93.666 27.837-28-75-75v-112H662V-262l86.496 88.334ZM186.666-120q-27.5 0-47.083-19.583T120-186.666v-586.668q0-28.333 19.167-47.499Q158.333-840 186.666-840H377q8.334-35 37.333-57.5 29-22.5 65.667-22.5 37.333 0 66.167 22.5Q575-875 583.333-840h190.001q28.333 0 47.499 19.167Q840-801.667 840-773.334v288.668q-16-10.333-32.344-17.653-16.344-7.32-34.322-13.013v-258.002h-66.667v100H253.333v-100h-66.667v586.668h257.335q5.667 17.333 13.333 33.666 7.667 16.333 18.667 33H186.666ZM480-773.334q17 0 28.5-11.5t11.5-28.5q0-17-11.5-28.5t-28.5-11.5q-17 0-28.5 11.5t-11.5 28.5q0 17 11.5 28.5t28.5 11.5Z"/></svg>